<mxfile host="app.diagrams.net" modified="2023-04-21T08:03:13.127Z" agent="Mozilla/5.0 (Windows NT 10.0; Win64; x64) AppleWebKit/537.36 (KHTML, like Gecko) Chrome/112.0.0.0 Safari/537.36" etag="gZqGo77-5xal2oz3b6mO" version="21.2.1" type="github">
  <diagram name="페이지-1" id="1Tdx3d5ZIVIHdYjGnrE-">
    <mxGraphModel dx="1434" dy="796" grid="1" gridSize="10" guides="1" tooltips="1" connect="1" arrows="1" fold="1" page="1" pageScale="1" pageWidth="1169" pageHeight="827" math="0" shadow="0">
      <root>
        <mxCell id="0" />
        <mxCell id="1" parent="0" />
        <mxCell id="AfpR5fnFPfOwf9-LFBn0-2" value="과목" style="rounded=0;whiteSpace=wrap;html=1;" vertex="1" parent="1">
          <mxGeometry x="430" y="158" width="120" height="60" as="geometry" />
        </mxCell>
        <mxCell id="AfpR5fnFPfOwf9-LFBn0-3" value="단원" style="rounded=0;whiteSpace=wrap;html=1;" vertex="1" parent="1">
          <mxGeometry x="430" y="38" width="120" height="60" as="geometry" />
        </mxCell>
        <mxCell id="AfpR5fnFPfOwf9-LFBn0-4" value="문항" style="rounded=0;whiteSpace=wrap;html=1;" vertex="1" parent="1">
          <mxGeometry x="240" y="158" width="120" height="60" as="geometry" />
        </mxCell>
        <mxCell id="AfpR5fnFPfOwf9-LFBn0-5" value="문항메타" style="rounded=0;whiteSpace=wrap;html=1;" vertex="1" parent="1">
          <mxGeometry x="240" y="298" width="120" height="60" as="geometry" />
        </mxCell>
        <mxCell id="AfpR5fnFPfOwf9-LFBn0-6" value="문항 HTML" style="rounded=0;whiteSpace=wrap;html=1;" vertex="1" parent="1">
          <mxGeometry x="430" y="298" width="120" height="60" as="geometry" />
        </mxCell>
        <mxCell id="AfpR5fnFPfOwf9-LFBn0-7" value="시험지" style="rounded=0;whiteSpace=wrap;html=1;" vertex="1" parent="1">
          <mxGeometry x="40" y="158" width="120" height="60" as="geometry" />
        </mxCell>
        <mxCell id="AfpR5fnFPfOwf9-LFBn0-8" value="" style="edgeStyle=entityRelationEdgeStyle;fontSize=12;html=1;endArrow=ERoneToMany;rounded=0;exitX=1;exitY=0.5;exitDx=0;exitDy=0;entryX=0;entryY=0.5;entryDx=0;entryDy=0;" edge="1" parent="1" source="AfpR5fnFPfOwf9-LFBn0-7" target="AfpR5fnFPfOwf9-LFBn0-4">
          <mxGeometry width="100" height="100" relative="1" as="geometry">
            <mxPoint x="150" y="298" as="sourcePoint" />
            <mxPoint x="250" y="198" as="targetPoint" />
          </mxGeometry>
        </mxCell>
        <mxCell id="AfpR5fnFPfOwf9-LFBn0-9" value="" style="edgeStyle=entityRelationEdgeStyle;fontSize=12;html=1;endArrow=ERoneToMany;rounded=0;exitX=1;exitY=0.5;exitDx=0;exitDy=0;entryX=0;entryY=0.5;entryDx=0;entryDy=0;" edge="1" parent="1" source="AfpR5fnFPfOwf9-LFBn0-4" target="AfpR5fnFPfOwf9-LFBn0-2">
          <mxGeometry width="100" height="100" relative="1" as="geometry">
            <mxPoint x="220" y="288" as="sourcePoint" />
            <mxPoint x="320" y="188" as="targetPoint" />
          </mxGeometry>
        </mxCell>
        <mxCell id="AfpR5fnFPfOwf9-LFBn0-10" value="" style="edgeStyle=elbowEdgeStyle;fontSize=12;html=1;endArrow=ERoneToMany;rounded=0;exitX=0.5;exitY=0;exitDx=0;exitDy=0;entryX=0.5;entryY=1;entryDx=0;entryDy=0;" edge="1" parent="1" source="AfpR5fnFPfOwf9-LFBn0-2" target="AfpR5fnFPfOwf9-LFBn0-3">
          <mxGeometry width="100" height="100" relative="1" as="geometry">
            <mxPoint x="400" y="228" as="sourcePoint" />
            <mxPoint x="500" y="128" as="targetPoint" />
          </mxGeometry>
        </mxCell>
        <mxCell id="AfpR5fnFPfOwf9-LFBn0-11" value="" style="edgeStyle=elbowEdgeStyle;fontSize=12;html=1;endArrow=ERmandOne;startArrow=ERmandOne;rounded=0;entryX=0.5;entryY=1;entryDx=0;entryDy=0;exitX=0.5;exitY=0;exitDx=0;exitDy=0;" edge="1" parent="1" source="AfpR5fnFPfOwf9-LFBn0-5" target="AfpR5fnFPfOwf9-LFBn0-4">
          <mxGeometry width="100" height="100" relative="1" as="geometry">
            <mxPoint x="400" y="228" as="sourcePoint" />
            <mxPoint x="500" y="128" as="targetPoint" />
          </mxGeometry>
        </mxCell>
        <mxCell id="AfpR5fnFPfOwf9-LFBn0-12" value="" style="edgeStyle=elbowEdgeStyle;fontSize=12;html=1;endArrow=ERmandOne;startArrow=ERmandOne;rounded=0;entryX=0.5;entryY=1;entryDx=0;entryDy=0;exitX=0.5;exitY=0;exitDx=0;exitDy=0;elbow=vertical;" edge="1" parent="1" source="AfpR5fnFPfOwf9-LFBn0-6" target="AfpR5fnFPfOwf9-LFBn0-4">
          <mxGeometry width="100" height="100" relative="1" as="geometry">
            <mxPoint x="400" y="228" as="sourcePoint" />
            <mxPoint x="500" y="128" as="targetPoint" />
          </mxGeometry>
        </mxCell>
      </root>
    </mxGraphModel>
  </diagram>
</mxfile>
